{
    "accessors": {
        "accessor_21": {
            "bufferView": "bufferView_29",
            "byteOffset": 0,
            "byteStride": 0,
            "componentType": 5123,
            "count": 4374,
            "type": "SCALAR"
        },
        "accessor_23": {
            "bufferView": "bufferView_30",
            "byteOffset": 0,
            "byteStride": 12,
            "componentType": 5126,
            "count": 4374,
            "max": [
                0.803004,
                0.587975,
                2.32922
            ],
            "min": [
                -0.803004,
                -0.537854,
                -0.0177525
            ],
            "type": "VEC3"
        },
        "accessor_25": {
            "bufferView": "bufferView_30",
            "byteOffset": 52488,
            "byteStride": 12,
            "componentType": 5126,
            "count": 4374,
            "max": [
                0.999693,
                0.999997,
                0.988406
            ],
            "min": [
                -0.999616,
                -0.999989,
                -0.999863
            ],
            "type": "VEC3"
        },
        "accessor_27": {
            "bufferView": "bufferView_30",
            "byteOffset": 104976,
            "byteStride": 8,
            "componentType": 5126,
            "count": 4374,
            "max": [
                0.988577,
                0.970076
            ],
            "min": [
                0.0212864,
                0.0131107
            ],
            "type": "VEC2"
        }
    },
    "animations": {},
    "asset": {
        "generator": "collada2gltf@d78daf1e7950e6c22fe6bec1d07965e8a302e90d",
        "premultipliedAlpha": true,
        "profile": {
            "api": "WebGL",
            "version": "1.0.2"
        },
        "version": 1
    },
    "bufferViews": {
        "bufferView_29": {
            "buffer": "chair",
            "byteLength": 8748,
            "byteOffset": 0,
            "target": 34963
        },
        "bufferView_30": {
            "buffer": "chair",
            "byteLength": 139968,
            "byteOffset": 8748,
            "target": 34962
        }
    },
    "buffers": {
        "chair": {
            "byteLength": 148716,
            "type": "arraybuffer",
            "uri": "chair.bin"
        }
    },
    "cameras": {
        "Camera-camera": {
            "name": "Camera",
            "perspective": {
                "aspect_ratio": 1.77778,
                "yfov": 0.482375,
                "zfar": 100,
                "znear": 0.1
            },
            "type": "perspective"
        }
    },
    "images": {
        "Armchair_Color_jpg": {
            "name": "Armchair_Color_jpg",
            "uri": "Armchair_Color.jpg"
        }
    },
    "materials": {
        "Armchair_Material-effect": {
            "name": "Armchair_Material",
            "technique": "technique0",
            "values": {
                "ambient": [
                    0,
                    0,
                    0,
                    1
                ],
                "diffuse": "texture_Armchair_Color_jpg",
                "emission": [
                    0,
                    0,
                    0,
                    1
                ],
                "shininess": 50,
                "specular": [
                    0.5,
                    0.5,
                    0.5,
                    1
                ]
            }
        }
    },
    "meshes": {
        "Armchair-mesh": {
            "name": "Armchair",
            "primitives": [
                {
                    "attributes": {
                        "NORMAL": "accessor_25",
                        "POSITION": "accessor_23",
                        "TEXCOORD_0": "accessor_27"
                    },
                    "indices": "accessor_21",
                    "material": "Armchair_Material-effect",
                    "mode": 4
                }
            ]
        }
    },
    "nodes": {
        "Armchair": {
            "children": [],
            "matrix": [
                1,
                0,
                0,
                0,
                0,
                1,
                0,
                0,
                0,
                0,
                1,
                0,
                -0.0847101,
                -0.233155,
                -0.0335582,
                1
            ],
            "meshes": [
                "Armchair-mesh"
            ],
            "name": "Armchair"
        },
        "Camera": {
            "camera": "Camera-camera",
            "children": [],
            "matrix": [
                0.685921,
                0.727676,
                0,
                0,
                -0.324014,
                0.305421,
                0.895396,
                0,
                0.651558,
                -0.61417,
                0.445271,
                0,
                7.48113,
                -6.50764,
                5.34367,
                1
            ],
            "name": "Camera"
        },
        "Lamp": {
            "children": [],
            "matrix": [
                -0.290865,
                0.955171,
                -0.0551891,
                0,
                -0.771101,
                -0.199883,
                0.604525,
                0,
                0.566393,
                0.218391,
                0.794672,
                0,
                4.07624,
                1.00545,
                5.90386,
                1
            ],
            "name": "Lamp"
        },
        "node_3": {
            "children": [
                "Camera",
                "Lamp",
                "Armchair"
            ],
            "matrix": [
                1,
                0,
                0,
                0,
                0,
                0,
                -1,
                0,
                0,
                1,
                0,
                0,
                0,
                0,
                0,
                1
            ],
            "name": "Y_UP_Transform"
        }
    },
    "programs": {
        "program_0": {
            "attributes": [
                "a_normal",
                "a_position",
                "a_texcoord0"
            ],
            "fragmentShader": "chair0FS",
            "vertexShader": "chair0VS"
        }
    },
    "samplers": {
        "sampler_0": {
            "magFilter": 9729,
            "minFilter": 9729,
            "wrapS": 10497,
            "wrapT": 10497
        }
    },
    "scene": "defaultScene",
    "scenes": {
        "defaultScene": {
            "nodes": [
                "node_3"
            ]
        }
    },
    "shaders": {
        "chair0FS": {
            "type": 35632,
            "uri": "chair0FS.glsl"
        },
        "chair0VS": {
            "type": 35633,
            "uri": "chair0VS.glsl"
        }
    },
    "skins": {},
    "techniques": {
        "technique0": {
            "attributes": {
                "a_normal": "normal",
                "a_position": "position",
                "a_texcoord0": "texcoord0"
            },
            "parameters": {
                "ambient": {
                    "type": 35666
                },
                "diffuse": {
                    "type": 35678
                },
                "emission": {
                    "type": 35666
                },
                "light0Color": {
                    "type": 35665,
                    "value": [
                        1,
                        1,
                        1
                    ]
                },
                "light0ConstantAttenuation": {
                    "type": 5126,
                    "value": 1
                },
                "light0LinearAttenuation": {
                    "type": 5126,
                    "value": 0
                },
                "light0QuadraticAttenuation": {
                    "type": 5126,
                    "value": 0.00111109
                },
                "light0Transform": {
                    "node": "Lamp",
                    "semantic": "MODELVIEW",
                    "type": 35676
                },
                "modelViewMatrix": {
                    "semantic": "MODELVIEW",
                    "type": 35676
                },
                "normal": {
                    "semantic": "NORMAL",
                    "type": 35665
                },
                "normalMatrix": {
                    "semantic": "MODELVIEWINVERSETRANSPOSE",
                    "type": 35675
                },
                "position": {
                    "semantic": "POSITION",
                    "type": 35665
                },
                "projectionMatrix": {
                    "semantic": "PROJECTION",
                    "type": 35676
                },
                "shininess": {
                    "type": 5126
                },
                "specular": {
                    "type": 35666
                },
                "texcoord0": {
                    "semantic": "TEXCOORD_0",
                    "type": 35664
                }
            },
            "program": "program_0",
            "states": {
                "enable": [
                    2929,
                    2884
                ]
            },
            "uniforms": {
                "u_ambient": "ambient",
                "u_diffuse": "diffuse",
                "u_emission": "emission",
                "u_light0Color": "light0Color",
                "u_light0ConstantAttenuation": "light0ConstantAttenuation",
                "u_light0LinearAttenuation": "light0LinearAttenuation",
                "u_light0QuadraticAttenuation": "light0QuadraticAttenuation",
                "u_light0Transform": "light0Transform",
                "u_modelViewMatrix": "modelViewMatrix",
                "u_normalMatrix": "normalMatrix",
                "u_projectionMatrix": "projectionMatrix",
                "u_shininess": "shininess",
                "u_specular": "specular"
            }
        }
    },
    "textures": {
        "texture_Armchair_Color_jpg": {
            "format": 6408,
            "internalFormat": 6408,
            "sampler": "sampler_0",
            "source": "Armchair_Color_jpg",
            "target": 3553,
            "type": 5121
        }
    }
}